<?xml version="1.0" encoding="utf-8"?>
<!-- Generator: Adobe Illustrator 25.0.0, SVG Export Plug-In . SVG Version: 6.00 Build 0)  -->
<svg version="1.1" id="Capa_1" xmlns="http://www.w3.org/2000/svg" xmlns:xlink="http://www.w3.org/1999/xlink" x="0px" y="0px"
	 viewBox="0 0 30 30" style="enable-background:new 0 0 30 30;" xml:space="preserve">
<style type="text/css">
	.st0{fill:#D6DAA9;}
</style>
<g>
	<path class="st0" d="M29.7,15.4c0-8.1-6.6-14.7-14.7-14.7C6.9,0.7,0.3,7.3,0.3,15.4c0,6.4,4.1,11.9,9.9,13.9
		c0.4-0.3,0.8-0.6,0.8-1.1c0-0.8,0-2.9,0-2.9s-0.6,0.1-1.5,0.1c-2.3,0-3-1.5-3.4-2.3c-0.4-1.1-1-1.6-1.6-2c-0.4-0.2-0.5-0.5,0-0.6
		c2-0.4,2.5,2.3,3.9,2.7c1,0.3,2.2,0.2,2.8-0.2c0.1-0.8,0.7-1.5,1.2-1.9c-3.4-0.3-5.5-1.5-6.5-3.4l-0.1-0.2l-0.3-0.6l-0.1-0.2
		c-0.3-1-0.5-2.1-0.5-3.3c0-2.2,0.7-3,1.6-4.2C5.7,6.7,6.7,4.9,6.7,4.9S8.2,4.6,11,6.6c1.5-0.7,5.6-0.7,7.5-0.1
		c1.2-0.8,3.3-1.9,4.2-1.6c0.2,0.4,0.7,1.5,0.3,3.9c0.3,0.5,1.8,1.7,1.8,4.9c0,1.2-0.1,2.2-0.4,3l-0.1,0.4c0,0-0.1,0.2-0.2,0.4
		l-0.1,0.2c-1,2.2-3.1,3.1-6.5,3.4c1.1,0.7,1.4,1.5,1.4,3.9s0,2.6,0,3.2c0,0.5,0.4,0.8,0.7,1.1C25.5,27.3,29.7,21.8,29.7,15.4z"/>
</g>
</svg>
