<?xml version="1.0" encoding="utf-8"?>
<!-- Generator: Adobe Illustrator 25.0.0, SVG Export Plug-In . SVG Version: 6.00 Build 0)  -->
<svg version="1.1" id="Capa_1" xmlns="http://www.w3.org/2000/svg" xmlns:xlink="http://www.w3.org/1999/xlink" x="0px" y="0px"
	 viewBox="0 0 30 30" style="enable-background:new 0 0 30 30;" xml:space="preserve">
<style type="text/css">
	.st0{fill:#D6DAA9;}
</style>
<path class="st0" d="M15,0.5C7,0.5,0.5,7,0.5,15S7,29.5,15,29.5c8,0,14.5-6.5,14.5-14.5S23,0.5,15,0.5z M11.4,21.5h-3v-9.7h3V21.5z
	 M9.9,10.5c-1,0-1.8-0.8-1.8-1.8s0.8-1.8,1.8-1.8c1,0,1.8,0.8,1.8,1.8S10.9,10.5,9.9,10.5z M22.7,21.5h-3c0,0,0-3.7,0-5.1
	c0-1.4-0.5-2.2-1.6-2.2c-1.2,0-1.8,0.8-1.8,2.2c0,1.5,0,5.1,0,5.1h-2.9v-9.7h2.9v1.3c0,0,0.9-1.6,2.9-1.6c2.1,0,3.5,1.3,3.5,3.8
	C22.7,17.9,22.7,21.5,22.7,21.5z"/>
</svg>
