<?xml version="1.0" encoding="utf-8"?>
<!-- Generator: Adobe Illustrator 25.0.0, SVG Export Plug-In . SVG Version: 6.00 Build 0)  -->
<svg version="1.1" id="Capa_1" xmlns="http://www.w3.org/2000/svg" xmlns:xlink="http://www.w3.org/1999/xlink" x="0px" y="0px"
	 viewBox="0 0 32 32" style="enable-background:new 0 0 32 32;" xml:space="preserve">
<style type="text/css">
	.st0{fill:none;stroke:#00AFBC;stroke-width:2;stroke-miterlimit:10;}
	.st1{fill:#00AFBC;}
</style>
<g id="Layer_2">
	<path class="st0" d="M19.5,4.1c-0.3-0.2-0.7-0.1-1,0.1L10.7,10H3c-0.6,0-1,0.4-1,1v10c0,0.6,0.4,1,1,1h7.7l7.7,5.8
		c0.4,0.3,1.1,0.2,1.4-0.2c0.1-0.2,0.2-0.4,0.2-0.6V5C20,4.6,19.8,4.3,19.5,4.1z"/>
	<path class="st1" d="M23,12c-0.6,0-1,0.4-1,1v6c0,0.6,0.4,1,1,1s1-0.4,1-1v-6C24,12.4,23.6,12,23,12z"/>
	<path class="st1" d="M26,10c-0.6,0-1,0.4-1,1v10c0,0.6,0.4,1,1,1s1-0.4,1-1V11C27,10.4,26.6,10,26,10z"/>
	<path class="st1" d="M29,8c-0.6,0-1,0.4-1,1v14c0,0.6,0.4,1,1,1s1-0.4,1-1V9C30,8.4,29.6,8,29,8z"/>
</g>
</svg>
