<?xml version="1.0" encoding="utf-8"?>
<!-- Generator: Adobe Illustrator 25.0.0, SVG Export Plug-In . SVG Version: 6.00 Build 0)  -->
<svg version="1.1" id="Capa_1" xmlns="http://www.w3.org/2000/svg" xmlns:xlink="http://www.w3.org/1999/xlink" x="0px" y="0px"
	 viewBox="0 0 32 32" style="enable-background:new 0 0 32 32;" xml:space="preserve">
<style type="text/css">
	.st0{fill:none;stroke:#00AFBC;stroke-width:2;stroke-miterlimit:10;}
	.st1{fill:#00AFBC;}
</style>
<g id="Layer_2">
	<path class="st0" d="M19.5,4.1c-0.3-0.2-0.7-0.1-1,0.1L10.7,10H3c-0.6,0-1,0.4-1,1v10c0,0.6,0.4,1,1,1h7.7l7.7,5.8
		c0.4,0.3,1.1,0.2,1.4-0.2c0.1-0.2,0.2-0.4,0.2-0.6V5C20,4.6,19.8,4.3,19.5,4.1z"/>
	<path class="st1" d="M27.4,16l2.3-2.3c0.4-0.4,0.3-1.1-0.1-1.4c-0.4-0.3-0.9-0.3-1.3,0L26,14.6l-2.3-2.3c-0.4-0.4-1.1-0.3-1.4,0.1
		c-0.3,0.4-0.3,0.9,0,1.3l2.3,2.3l-2.3,2.3c-0.4,0.4-0.5,1-0.1,1.4c0.4,0.4,1,0.5,1.4,0.1c0,0,0.1-0.1,0.1-0.1l2.3-2.3l2.3,2.3
		c0.4,0.4,1.1,0.3,1.4-0.1c0.3-0.4,0.3-0.9,0-1.3L27.4,16z"/>
</g>
</svg>
