<?xml version="1.0" encoding="UTF-8"?>
<svg id="desktop-logo" aria-hidden="true" width="94" height="17" viewBox="0 0 94 17" fill="none" xmlns="http://www.w3.org/2000/svg"><path d="M0.792 0.147999V16.258H5.652V13.99H3.816V2.416H5.652V0.147999H0.792ZM9.83616 11.074C9.59616 11.074 9.40416 10.978 9.26016 10.786C9.11616 10.594 9.04416 10.336 9.04416 10.012C9.04416 9.688 9.09216 9.43 9.18816 9.238C9.28416 9.034 9.45816 8.872 9.71016 8.752C9.95016 8.644 10.1662 8.578 10.3582 8.554C10.5622 8.518 10.7122 8.434 10.8082 8.302H10.8442V9.472C10.8442 10.012 10.7662 10.414 10.6102 10.678C10.4542 10.942 10.1962 11.074 9.83616 11.074ZM11.0422 13H14.1742C14.0422 12.748 13.9582 12.448 13.9222 12.1C13.8862 11.752 13.8682 11.35 13.8682 10.894V6.142C13.8682 5.506 13.7722 4.99 13.5802 4.594C13.4002 4.186 13.1362 3.868 12.7882 3.64C12.4522 3.4 12.0442 3.238 11.5642 3.154C11.0962 3.058 10.5802 3.01 10.0162 3.01C9.64416 3.01 9.24216 3.052 8.81016 3.136C8.37816 3.208 7.97616 3.364 7.60416 3.604C7.23216 3.832 6.92016 4.162 6.66816 4.594C6.41616 5.014 6.29016 5.578 6.29016 6.286H9.09816C9.11016 5.77 9.18816 5.428 9.33216 5.26C9.47616 5.08 9.70416 4.99 10.0162 4.99C10.5682 4.99 10.8442 5.29 10.8442 5.89C10.8442 6.19 10.7722 6.424 10.6282 6.592C10.4842 6.748 10.2382 6.868 9.89016 6.952L8.61216 7.258C8.09616 7.378 7.66416 7.528 7.31616 7.708C6.96816 7.876 6.69216 8.086 6.48816 8.338C6.28416 8.578 6.13416 8.866 6.03816 9.202C5.95416 9.538 5.91216 9.934 5.91216 10.39C5.91216 10.81 5.96016 11.194 6.05616 11.542C6.15216 11.89 6.30816 12.19 6.52416 12.442C6.74016 12.694 7.01616 12.88 7.35216 13C7.70016 13.132 8.12016 13.198 8.61216 13.198C9.11616 13.198 9.56016 13.09 9.94416 12.874C10.3402 12.658 10.6282 12.334 10.8082 11.902H10.8442C10.8682 12.106 10.8922 12.298 10.9162 12.478C10.9402 12.658 10.9822 12.832 11.0422 13ZM18.2602 8.14C18.2602 7.612 18.2722 7.174 18.2962 6.826C18.3202 6.478 18.3622 6.202 18.4222 5.998C18.4942 5.782 18.5902 5.632 18.7102 5.548C18.8302 5.464 18.9862 5.422 19.1782 5.422C19.3582 5.422 19.5082 5.464 19.6282 5.548C19.7482 5.632 19.8382 5.782 19.8982 5.998C19.9702 6.202 20.0182 6.478 20.0422 6.826C20.0662 7.174 20.0782 7.612 20.0782 8.14C20.0782 8.656 20.0662 9.088 20.0422 9.436C20.0182 9.784 19.9702 10.066 19.8982 10.282C19.8382 10.486 19.7482 10.63 19.6282 10.714C19.5082 10.798 19.3582 10.84 19.1782 10.84C18.9862 10.84 18.8302 10.798 18.7102 10.714C18.5902 10.63 18.4942 10.486 18.4222 10.282C18.3622 10.066 18.3202 9.784 18.2962 9.436C18.2722 9.088 18.2602 8.656 18.2602 8.14ZM20.0782 0.147999V4.36H20.0422C19.8742 3.856 19.6042 3.508 19.2322 3.316C18.8722 3.112 18.4642 3.01 18.0082 3.01C17.5642 3.01 17.1562 3.094 16.7842 3.262C16.4122 3.43 16.0942 3.706 15.8302 4.09C15.5782 4.474 15.3802 4.978 15.2362 5.602C15.0922 6.226 15.0202 7 15.0202 7.924C15.0202 9.736 15.2362 11.068 15.6682 11.92C16.1002 12.772 16.8562 13.198 17.9362 13.198C18.5122 13.198 18.9742 13.078 19.3222 12.838C19.6702 12.598 19.9462 12.208 20.1502 11.668H20.1862V13H23.3182V0.147999H20.0782ZM24.6597 3.262V10.606C24.6597 11.122 24.7257 11.554 24.8577 11.902C24.9897 12.238 25.1697 12.508 25.3977 12.712C25.6257 12.904 25.8897 13.03 26.1897 13.09C26.5017 13.162 26.8377 13.198 27.1977 13.198C28.3617 13.198 29.1477 12.736 29.5557 11.812H29.5917V13H32.7237V3.262H29.4837V9.688C29.4837 10.096 29.4237 10.39 29.3037 10.57C29.1837 10.75 28.9797 10.84 28.6917 10.84C28.4037 10.84 28.1997 10.75 28.0797 10.57C27.9597 10.39 27.8997 10.096 27.8997 9.688V3.262H24.6597ZM34.0653 0.147999V13H37.3053V0.147999H34.0653ZM38.0399 3.262V5.44H39.1199V10.624C39.1199 11.164 39.1679 11.602 39.2639 11.938C39.3719 12.262 39.5339 12.508 39.7499 12.676C39.9779 12.844 40.2659 12.952 40.6139 13C40.9619 13.036 41.3819 13.054 41.8739 13.054C42.1499 13.054 42.4379 13.042 42.7379 13.018C43.0379 13.006 43.3379 13 43.6379 13V10.84H43.1339C42.8699 10.84 42.6719 10.786 42.5399 10.678C42.4199 10.558 42.3599 10.36 42.3599 10.084V5.44H43.6379V3.262H42.3599V0.399999H39.1199V3.262H38.0399ZM51.5074 9.976H48.6634C48.6634 11.044 48.9574 11.848 49.5454 12.388C50.1454 12.928 51.1234 13.198 52.4794 13.198C53.0914 13.198 53.6374 13.126 54.1174 12.982C54.6094 12.838 55.0174 12.622 55.3414 12.334C55.6774 12.046 55.9354 11.704 56.1154 11.308C56.2954 10.912 56.3854 10.474 56.3854 9.994C56.3854 9.37 56.2654 8.872 56.0254 8.5C55.7974 8.116 55.5094 7.816 55.1614 7.6C54.8134 7.372 54.4354 7.198 54.0274 7.078C53.6314 6.958 53.2594 6.844 52.9114 6.736C52.5634 6.628 52.2694 6.508 52.0294 6.376C51.8014 6.232 51.6874 6.022 51.6874 5.746C51.6874 5.506 51.7654 5.32 51.9214 5.188C52.0774 5.056 52.2754 4.99 52.5154 4.99C52.7914 4.99 53.0014 5.068 53.1454 5.224C53.3014 5.368 53.3794 5.65 53.3794 6.07H56.1874C56.1874 4.03 54.9694 3.01 52.5334 3.01C51.8734 3.01 51.2974 3.088 50.8054 3.244C50.3254 3.4 49.9234 3.616 49.5994 3.892C49.2874 4.168 49.0534 4.492 48.8974 4.864C48.7414 5.224 48.6634 5.62 48.6634 6.052C48.6634 6.664 48.7774 7.162 49.0054 7.546C49.2454 7.918 49.5394 8.218 49.8874 8.446C50.2354 8.674 50.6074 8.854 51.0034 8.986C51.4114 9.118 51.7894 9.244 52.1374 9.364C52.4854 9.484 52.7734 9.622 53.0014 9.778C53.2414 9.934 53.3614 10.156 53.3614 10.444C53.3614 10.708 53.2654 10.912 53.0734 11.056C52.8934 11.2 52.6774 11.272 52.4254 11.272C52.1254 11.272 51.8974 11.158 51.7414 10.93C51.6574 10.822 51.5974 10.684 51.5614 10.516C51.5254 10.348 51.5074 10.168 51.5074 9.976ZM56.6895 3.262L58.6695 13H62.3415L63.3315 6.106H63.3675L64.3575 13H68.0295L70.0095 3.262H66.8775L66.0675 10.264H66.0315L65.0775 3.262H61.6215L60.6675 10.264H60.6315L59.8215 3.262H56.6895ZM70.7157 0.147999V2.56H73.9557V0.147999H70.7157ZM70.7157 3.262V13H73.9557V3.262H70.7157ZM80.0363 6.574V13H83.2763V6.574C83.2763 6.166 83.3363 5.872 83.4563 5.692C83.5763 5.512 83.7803 5.422 84.0683 5.422C84.3563 5.422 84.5603 5.512 84.6803 5.692C84.8003 5.872 84.8603 6.166 84.8603 6.574V13H88.1003V5.656C88.1003 5.128 88.0343 4.696 87.9023 4.36C87.7703 4.024 87.5903 3.754 87.3623 3.55C87.1343 3.346 86.8643 3.208 86.5523 3.136C86.2523 3.052 85.9223 3.01 85.5623 3.01C85.0583 3.01 84.5843 3.124 84.1403 3.352C83.7083 3.568 83.3663 3.952 83.1143 4.504C82.9103 4 82.6283 3.628 82.2683 3.388C81.9203 3.136 81.4103 3.01 80.7383 3.01C79.5863 3.01 78.8003 3.49 78.3803 4.45H78.3443V3.262H75.2123V13H78.4523V6.574C78.4523 6.166 78.5123 5.872 78.6323 5.692C78.7523 5.512 78.9563 5.422 79.2443 5.422C79.5323 5.422 79.7363 5.512 79.8563 5.692C79.9763 5.872 80.0363 6.166 80.0363 6.574ZM90.5001 2.416V13.99H88.6641V16.258H93.5241V0.147999H88.6641V2.416H90.5001Z" fill="white"/></svg>